<svg height="512" viewBox="0 0 64 64" width="512" xmlns="http://www.w3.org/2000/svg"><g id="Travel-Lifestyle-AirPlane-Women-Luggage-Tourist"><path d="m21 33h-16a2 2 0 0 0 -2 2v20a2 2 0 0 0 2 2h18v-22a2 2 0 0 0 -2-2z" fill="#c0ab91"/><path d="m23 35v22h-3v-22a2.006 2.006 0 0 0 -2-2h3a2.006 2.006 0 0 1 2 2z" fill="#957856"/><path d="m59 49.67v8.33l-6.9 1.47 1.27-6.33a15.808 15.808 0 0 0 0-6.28l-1.34-6.72a10.008 10.008 0 0 1 6.97 9.53z" fill="#ffc477"/><path d="m59 49.67v8.33l-6.9 1.47.13-.67 3.77-.8v-8.33a10.006 10.006 0 0 0 -3.6-7.68l-.37-1.85a10.008 10.008 0 0 1 6.97 9.53z" fill="#ffa733"/><path d="m52 14.49c5.43.54 9 1.46 9 2.51 0 1.17-4.47 2.19-11 2.68-2.7.2-5.76.32-9 .32s-6.3-.12-9-.32c-6.53-.49-11-1.51-11-2.68 0-1.05 3.57-1.97 9-2.51v.51c0 1.1 4.92 2 11 2s11-.9 11-2z" fill="#bb7fd9"/><path d="m61 17c0 1.17-4.47 2.19-11 2.68-2.7.2-5.76.32-9 .32-1.02 0-2.02-.01-3-.04 2.13-.04 4.15-.14 6-.28 6.53-.49 11-1.51 11-2.68 0-.6-1.17-1.16-3.19-1.63a.536.536 0 0 0 .19-.37v-.51c5.43.54 9 1.46 9 2.51z" fill="#933ec5"/><path d="m53.37 46.86a15.808 15.808 0 0 1 0 6.28l-1.27 6.33v.01l-7.13 1.52h-7.91l-7.17-1.53-1.26-6.33a15.808 15.808 0 0 1 0-6.28l1.34-6.72a9.541 9.541 0 0 1 1.62-.37l.41-.06 2.02-.29c.33 5.32 6.98 9.58 6.98 9.58s6.65-4.26 6.98-9.58l2.02.29.41.06a9.541 9.541 0 0 1 1.62.37z" fill="#bb7fd9"/><path d="m53.37 53.14-1.27 6.33v.01l-7.13 1.52h-4l7.13-1.52v-.01l1.27-6.33a15.808 15.808 0 0 0 0-6.28l-1.34-6.72c-.04-.01-.09-.03-.13-.04a5.052 5.052 0 0 0 .08-.68l2.02.29.41.06a9.541 9.541 0 0 1 1.62.37l1.34 6.72a15.808 15.808 0 0 1 0 6.28z" fill="#933ec5"/><path d="m52 22v2a2.006 2.006 0 0 1 -2 2 8.954 8.954 0 0 1 -2.64 6.36 8.423 8.423 0 0 1 -2.36 1.69 8.9 8.9 0 0 1 -8 0 8.423 8.423 0 0 1 -2.36-1.69 8.954 8.954 0 0 1 -2.64-6.36 2.015 2.015 0 0 1 -2-2v-2a2.006 2.006 0 0 1 2-2v-.32c2.7.2 5.76.32 9 .32s6.3-.12 9-.32v.32a2.015 2.015 0 0 1 2 2z" fill="#ffc477"/><path d="m46 20v-.09c1.4-.06 2.74-.14 4-.23v.32a2.015 2.015 0 0 1 2 2v2a2.006 2.006 0 0 1 -2 2 8.954 8.954 0 0 1 -2.64 6.36 8.423 8.423 0 0 1 -2.36 1.69 8.868 8.868 0 0 1 -6 .72 8.676 8.676 0 0 0 2-.72 8.423 8.423 0 0 0 2.36-1.69 8.954 8.954 0 0 0 2.64-6.36z" fill="#ffa733"/><path d="m52 14.49v.51c0 1.1-4.92 2-11 2s-11-.9-11-2v-1a11.136 11.136 0 0 1 .53-3.39c1.43.81 5.57 1.39 10.47 1.39s9.04-.58 10.47-1.39a11.136 11.136 0 0 1 .53 3.39z" fill="#fee9ab"/><path d="m50 26v13.71l-2.02-.29-2.98-.42v-4.95a8.423 8.423 0 0 0 2.36-1.69 8.954 8.954 0 0 0 2.64-6.36z" fill="#ffd422"/><path d="m41 3a11 11 0 0 1 10.47 7.61c-1.43.81-5.57 1.39-10.47 1.39s-9.04-.58-10.47-1.39a11.006 11.006 0 0 1 10.47-7.61z" fill="#bb7fd9"/><path d="m52 14v1c0 1.1-4.92 2-11 2-.68 0-1.35-.01-2-.03 5.12-.17 9-.99 9-1.97v-1a10.75 10.75 0 0 0 -.27-2.42 11.548 11.548 0 0 0 3.74-.97 11.136 11.136 0 0 1 .53 3.39z" fill="#ffd422"/><path d="m51.47 10.61a11.548 11.548 0 0 1 -3.74.97c-.07-.33-.16-.65-.26-.97a10.959 10.959 0 0 0 -8.49-7.42 10.4 10.4 0 0 1 2.02-.19 11 11 0 0 1 10.47 7.61z" fill="#933ec5"/><path d="m45 39 2.98.42c-.33 5.32-6.98 9.58-6.98 9.58s-6.65-4.26-6.98-9.58l2.98-.42v-4.95a8.9 8.9 0 0 0 8 0z" fill="#ffc477"/><path d="m37 34.05v4.95l-2.98.42-2.02.29v-13.71a8.954 8.954 0 0 0 2.64 6.36 8.423 8.423 0 0 0 2.36 1.69z" fill="#ffd422"/><path d="m29.97 40.14-1.34 6.72a15.808 15.808 0 0 0 0 6.28l1.26 6.33-6.89-1.47v-8.33c0-.23.01-.45.02-.67a10.033 10.033 0 0 1 6.95-8.86z" fill="#ffc477"/><path d="m25.73 8.37a1.988 1.988 0 0 1 -1.41 2.45l-19.32 5.18-2.07-7.73 4.9 2.83 4.83-1.29-1.55-5.8 3.86-1.03 3.48 5.27 4.83-1.29a1.861 1.861 0 0 1 .52-.07 1.987 1.987 0 0 1 1.93 1.48z" fill="#e0e0e2"/><path d="m24.32 10.82-.53.14a1.7 1.7 0 0 0 -.06-.59 1.987 1.987 0 0 0 -1.93-1.48 1.861 1.861 0 0 0 -.52.07l-4.83 1.29-3.48-5.27-1.49.4-.37-1.37 3.86-1.03 3.48 5.27 4.83-1.29a1.861 1.861 0 0 1 .52-.07 2 2 0 0 1 .52 3.93z" fill="#c6c5ca"/><path d="m23 35v4h-4a2.006 2.006 0 0 1 -2-2v-4h4a2.006 2.006 0 0 1 2 2z" fill="#ff3051"/><path d="m23 35v4h-3v-4a2.006 2.006 0 0 0 -2-2h3a2.006 2.006 0 0 1 2 2z" fill="#cd2a00"/><path d="m20 57v2a2 2 0 0 1 -4 0v-2z" fill="#898890"/><path d="m10 57v2a2 2 0 0 1 -4 0v-2z" fill="#898890"/><path d="m9 53v4h-4a2.006 2.006 0 0 1 -2-2v-4h4a2.006 2.006 0 0 1 2 2z" fill="#ff3051"/><path d="m9 33v4a2.006 2.006 0 0 1 -2 2h-4v-4a2.006 2.006 0 0 1 2-2z" fill="#ff3051"/><path d="m8 42h2v6h-2z"/><path d="m12 42h2v6h-2z"/><path d="m16 42h2v6h-2z"/><circle cx="37" cy="23" r="2"/><circle cx="45" cy="23" r="2"/><path d="m62 17c0-.79 0-2.42-9.02-3.41a11.987 11.987 0 0 0 -23.96 0c-9.02.99-9.02 2.62-9.02 3.41 0 1.96 4.48 2.96 9.43 3.48a2.9 2.9 0 0 0 -.43 1.52v2a3.014 3.014 0 0 0 2 2.83v12.04a11.018 11.018 0 0 0 -7 4.52v-8.39a3.009 3.009 0 0 0 -3-3h-3v-7a3.009 3.009 0 0 0 -3-3h-4a3.009 3.009 0 0 0 -3 3v7h-3a3.009 3.009 0 0 0 -3 3v20a3.009 3.009 0 0 0 3 3v1a3 3 0 0 0 6 0v-1h4v1a3 3 0 0 0 6 0v-1h1a1 1 0 0 0 .79.98l14.06 3a1.492 1.492 0 0 0 .21.02h7.91a1.492 1.492 0 0 0 .21-.02l14.03-3a1 1 0 0 0 .79-.98v-8.33a11.051 11.051 0 0 0 -9-10.8v-12.04a3.023 3.023 0 0 0 2-2.83v-2a2.951 2.951 0 0 0 -.43-1.52c4.95-.52 9.43-1.52 9.43-3.48zm-44 17h3a1 1 0 0 1 1 1v3h-3a1 1 0 0 1 -1-1zm-8-9a1 1 0 0 1 1-1h4a1 1 0 0 1 1 1v7h-6zm-6 10a1 1 0 0 1 1-1h3v3a1 1 0 0 1 -1 1h-3zm1 21a1 1 0 0 1 -1-1v-3h3a1 1 0 0 1 1 1v3zm4 3a1 1 0 0 1 -2 0v-1h2zm10 0a1 1 0 0 1 -2 0v-1h2zm3-9.33v6.33h-12v-3a3.009 3.009 0 0 0 -3-3h-3v-10h3a3.009 3.009 0 0 0 3-3v-3h6v3a3.009 3.009 0 0 0 3 3h3v9h.03c-.01.22-.03.44-.03.67zm19-45.67a10.029 10.029 0 0 1 9.19 6.06 35.966 35.966 0 0 1 -9.19.94 35.966 35.966 0 0 1 -9.19-.94 10.029 10.029 0 0 1 9.19-6.06zm-10 10a9.8 9.8 0 0 1 .21-2.04 37.354 37.354 0 0 0 9.79 1.04 37.354 37.354 0 0 0 9.79-1.04 9.8 9.8 0 0 1 .21 2.04v.74c-.78.48-4.18 1.26-10 1.26s-9.22-.78-10-1.26zm-3.35 39.34.96 4.84-4.61-.99v-7.52a9.054 9.054 0 0 1 4.61-7.84l-.96 4.83a16.7 16.7 0 0 0 0 6.68zm26.7-6.68-.96-4.83a9.054 9.054 0 0 1 4.61 7.84v7.52l-4.62.99.97-4.84a16.7 16.7 0 0 0 0-6.68zm-3.18-5.72 1.22 6.12a14.556 14.556 0 0 1 0 5.88l-1.14 5.7-6.39 1.36h-7.69l-6.43-1.37-1.13-5.69a14.556 14.556 0 0 1 0-5.88l1.22-6.12a8.428 8.428 0 0 1 .9-.18l1.43-.2c1.05 5.22 7.03 9.11 7.3 9.28a.991.991 0 0 0 1.08 0c.27-.17 6.25-4.06 7.3-9.28l1.43.2c.3.04.6.11.9.18zm-6.31-.95 1.99.28c-.77 3.52-4.45 6.49-5.85 7.51-1.4-1.02-5.08-3.98-5.85-7.51l1.99-.28a1 1 0 0 0 .86-.99v-3.46a10.013 10.013 0 0 0 6 0v3.46a1 1 0 0 0 .86.99zm1.14-1.86v-3.48a9.87 9.87 0 0 0 3-2.67v6.58zm-10 0-3 .43v-6.58a8.685 8.685 0 0 0 .93 1.08 9.594 9.594 0 0 0 2.07 1.59zm15-14.13a1 1 0 0 1 -1 1 1 1 0 0 0 -1 1 8 8 0 0 1 -16 0 1 1 0 0 0 -1-1 .949.949 0 0 1 -.71-.31.928.928 0 0 1 -.29-.69v-2a1 1 0 0 1 1-1 .95.95 0 0 0 .65-.26c3.38.22 6.58.26 8.35.26s4.97-.04 8.35-.26a.95.95 0 0 0 .65.26.949.949 0 0 1 .71.31.928.928 0 0 1 .29.69zm-10-5c-10.01 0-16.9-1.1-18.69-1.99.8-.39 2.84-.97 6.85-1.42 1.14 2.16 8.52 2.41 11.84 2.41 8.87 0 11.26-1.41 11.83-2.41 4.01.45 6.06 1.03 6.86 1.42-1.79.89-8.68 1.99-18.69 1.99z"/><path d="m4.5 16.866a1 1 0 0 0 .759.1l19.319-5.176a3 3 0 1 0 -1.554-5.8l-4.133 1.11-3.091-4.675a1 1 0 0 0 -1.09-.415l-3.864 1.035a1 1 0 0 0 -.707 1.225l1.3 4.83-3.464.928-4.545-2.622a1 1 0 0 0 -1.466 1.125l2.07 7.728a1 1 0 0 0 .466.607zm2.829-4.9a1 1 0 0 0 .758.1l4.83-1.294a1 1 0 0 0 .707-1.225l-1.294-4.829 2.2-.59 3.088 4.677a1 1 0 0 0 1.093.415l4.83-1.294a1 1 0 0 1 1.225.707 1 1 0 0 1 -.707 1.225l-18.352 4.917-1.186-4.429z"/></g></svg>